<?xml version="1.0" encoding="UTF-8"?>
<svg xmlns="http://www.w3.org/2000/svg" viewBox="0 0 500 800" width="500" height="800">
  <defs>
    <filter id="dropshadow" x="-10%" y="-10%" width="130%" height="140%">
      <feGaussianBlur in="SourceAlpha" stdDeviation="8"/>
      <feOffset dx="0" dy="10" result="shadow"/>
      <feComposite in="SourceGraphic" in2="shadow" operator="over"/>
    </filter>
    <filter id="softshadow">
      <feDropShadow dx="0" dy="8" stdDeviation="14" flood-color="rgba(0,0,0,0.18)"/>
    </filter>
  </defs>
  
  <g transform="rotate(-28, 250, 400)" filter="url(#softshadow)">
    
    <!-- 北海道 (ライトブルー) -->
    <g fill="#93C5E8">
      <path d="M 310 60 C 295 45 270 48 258 62 C 248 74 252 90 265 98 C 255 105 248 118 255 130 
               C 262 142 278 145 290 140 C 302 148 318 150 330 142 C 345 132 348 115 340 103 
               C 355 95 365 80 358 68 C 350 55 330 55 310 60 Z"/>
      <!-- 知床半島 -->
      <ellipse cx="355" cy="58" rx="18" ry="8" transform="rotate(-20, 355, 58)" opacity="0.9"/>
    </g>

    <!-- 東北 (ブルー) -->
    <g fill="#5A9BC8">
      <path d="M 268 140 C 258 148 250 165 252 182 C 254 196 260 210 268 222 
               C 272 232 276 244 274 256 C 272 264 266 270 262 278
               C 272 282 285 280 292 274 C 300 265 302 250 298 238
               C 308 228 314 212 310 196 C 306 180 296 168 290 158
               C 284 148 278 142 268 140 Z"/>
    </g>

    <!-- 関東 (オレンジ) -->
    <g fill="#F0A264">
      <path d="M 262 280 C 252 288 248 302 252 316 C 256 328 266 336 278 338
               C 290 340 305 335 312 325 C 320 314 318 298 308 290
               C 298 280 278 272 262 280 Z"/>
    </g>

    <!-- 中部 (グリーン) -->
    <g fill="#7BC47A">
      <path d="M 248 284 C 232 280 215 285 205 298 C 195 310 196 328 206 340
               C 214 350 228 356 243 354 C 255 352 264 344 268 334
               C 275 320 272 302 260 292 C 256 288 252 286 248 284 Z"/>
    </g>

    <!-- 近畿 (ピンク/パープル) -->
    <g fill="#E899C8">
      <path d="M 195 305 C 180 308 168 320 166 336 C 164 350 172 363 184 370
               C 196 376 212 374 221 364 C 230 354 230 338 222 328
               C 214 318 205 310 195 305 Z"/>
    </g>

    <!-- 中国 (イエロー) -->
    <g fill="#E8C840">
      <path d="M 155 340 C 138 335 120 340 112 354 C 104 368 108 385 120 394
               C 132 402 150 402 163 394 C 176 386 182 370 176 356
               C 172 348 164 342 155 340 Z"/>
    </g>

    <!-- 四国 (ティール) -->
    <g fill="#40B8A8">
      <path d="M 170 385 C 158 382 146 388 140 400 C 134 412 138 427 150 434
               C 162 440 178 438 186 427 C 194 416 192 400 182 393
               C 178 390 174 387 170 385 Z"/>
    </g>

    <!-- 九州 (コーラルピンク) -->
    <g fill="#E88888">
      <path d="M 120 385 C 105 378 88 382 78 395 C 68 408 70 428 82 440
               C 92 450 108 455 124 450 C 140 444 150 430 146 415
               C 142 400 132 388 120 385 Z"/>
      <!-- 対馬 -->
      <ellipse cx="76" cy="368" rx="7" ry="12" opacity="0.8"/>
    </g>

    <!-- 沖縄 (ライトコーラル) -->
    <g fill="#E87878" opacity="0.85">
      <ellipse cx="65" cy="490" rx="10" ry="6" transform="rotate(-20, 65, 490)"/>
      <ellipse cx="52" cy="510" rx="8" ry="5" transform="rotate(-20, 52, 510)"/>
      <ellipse cx="42" cy="528" rx="7" ry="4" transform="rotate(-20, 42, 528)"/>
      <ellipse cx="34" cy="545" rx="5" ry="3.5" transform="rotate(-20, 34, 545)"/>
    </g>

  </g>
</svg>